<?xml version="1.0" encoding="utf-8"?>
<!-- Generator: Adobe Illustrator 26.0.3, SVG Export Plug-In . SVG Version: 6.00 Build 0)  -->
<svg version="1.0" id="katman_1" xmlns="http://www.w3.org/2000/svg" xmlns:xlink="http://www.w3.org/1999/xlink" x="0px" y="0px"
	 viewBox="0 0 800 600" style="enable-background:new 0 0 800 600;" xml:space="preserve">
<style type="text/css">
	.st0{fill:#313335;}
</style>
<g>
	<g>
		<path class="st0" d="M126.7,356.7c-0.3,0-0.3,0-0.6-0.3l-36.7-52.1c0-0.3,0-0.3,0-0.6l26.5-57.9c0-0.3,0.3-0.3,0.6-0.3l63.3-6.2
			c0.3,0,0.3,0,0.6,0.3l36.8,52.1c0,0.3,0,0.3,0,0.6l-26.7,57.9c0,0.3-0.3,0.3-0.6,0.3L126.7,356.7L126.7,356.7z M90.7,304
			l36.3,51.3l62.7-5.8l26.4-57.2l-36.3-51.6l-62.7,5.8L90.7,304z M190,350.2L190,350.2L190,350.2z"/>
		<path class="st0" d="M126.4,356.7l-10.1-53v-57.9l49.8,14.7l51.3,31.8L179,326.2L126.4,356.7z M116.7,246.5v57.2l10.1,51.9
			l51.5-29.8l37.4-33.5l-50.7-31.5L116.7,246.5z"/>
		<g>
			<circle class="st0" cx="166.7" cy="260.8" r="1.9"/>
			<path class="st0" d="M166.7,264.7c-1.9,0-3.9-1.6-3.9-3.9c0-1.9,1.6-3.9,3.9-3.9c1.9,0,3.9,1.6,3.9,3.9
				C170.2,262.9,168.7,264.7,166.7,264.7z M166.7,260.8L166.7,260.8C166.3,260.8,166.7,260.8,166.7,260.8L166.7,260.8z"/>
		</g>
		<g>
			<circle class="st0" cx="179" cy="325.9" r="1.9"/>
			<path class="st0" d="M179,329.8c-1.9,0-3.9-1.6-3.9-3.9c0-2.3,1.6-3.9,3.9-3.9c1.9,0,3.9,1.6,3.9,3.9
				C182.9,328.2,181,329.8,179,329.8z M179,325.9L179,325.9C178.7,325.9,178.7,325.9,179,325.9L179,325.9z"/>
		</g>
		<g>
			<circle class="st0" cx="127" cy="356" r="1.9"/>
			<path class="st0" d="M127,359.9c-1.9,0-3.9-1.6-3.9-3.9c0-1.9,1.6-3.9,3.9-3.9c2.3,0,3.9,1.6,3.9,3.9S129.4,359.9,127,359.9z
				 M127,356L127,356L127,356L127,356z"/>
		</g>
		<g>
			<circle class="st0" cx="116.7" cy="304" r="1.9"/>
			<path class="st0" d="M116.7,307.9c-1.9,0-3.9-1.6-3.9-3.9c0-1.9,1.6-3.9,3.9-3.9s3.9,1.6,3.9,3.9
				C120.2,306.4,118.6,307.9,116.7,307.9z M116.7,304L116.7,304C116.3,304,116.3,304.3,116.7,304L116.7,304z"/>
		</g>
		<g>
			<circle class="st0" cx="216.7" cy="292.3" r="1.9"/>
			<path class="st0" d="M216.7,296.2c-1.9,0-3.9-1.6-3.9-3.9c0-1.9,1.6-3.9,3.9-3.9c1.9,0,3.9,1.6,3.9,3.9
				C220.6,294.4,218.7,296.2,216.7,296.2z M216.7,292.3L216.7,292.3L216.7,292.3L216.7,292.3z"/>
		</g>
		<g>
			<circle class="st0" cx="116.7" cy="245.9" r="1.9"/>
			<path class="st0" d="M116.7,249.8c-1.9,0-3.9-1.6-3.9-3.9c0-1.9,1.6-3.9,3.9-3.9s3.9,1.6,3.9,3.9
				C120.2,248.2,118.6,249.8,116.7,249.8z M116.7,245.9L116.7,245.9C116.3,246.2,116.3,246.2,116.7,245.9L116.7,245.9z"/>
		</g>
		<path class="st0" d="M190,350.8C190,350.8,189.7,350.8,190,350.8l-48.7-17.2l-51.9-29.3c-0.3,0-0.3-0.3-0.3-0.3
			c0-0.3,0-0.3,0.3-0.6l39-35.7l51-27.9c0.3,0,0.3,0,0.6,0s0.3,0.3,0.3,0.3l11.4,50.4l-1.2,59.7C190.4,350.5,190.4,350.5,190,350.8
			C190.4,350.8,190,350.8,190,350.8z M91,303.7l51,28.5l47.4,16.8l1.2-58.8l-11.4-49.4l-50.1,27.6L91,303.7z"/>
		<path class="st0" d="M179,326.2L179,326.2l-63-21.8l0.3-0.3l50.4-43.5L179,326.2z M116.7,304l62.1,21.4l-12.3-64.3L116.7,304z"/>
		<path class="st0" d="M141.4,334.3l-13.3-66.9l64.3,23.1L141.4,334.3z M129.7,268.9l12.3,62.7l48-41.3L129.7,268.9z"/>
		
			<rect x="122.1" y="244.2" transform="matrix(0.8718 -0.4898 0.4898 0.8718 -110.0451 93.049)" class="st0" width="1.2" height="25.3"/>
		<polygon class="st0" points="127.7,356.4 126.7,355.7 141.4,332.6 142.3,333.4 		"/>
		
			<rect x="203.3" y="278.8" transform="matrix(7.286815e-02 -0.9973 0.9973 7.286815e-02 -101.5596 473.5226)" class="st0" width="1.2" height="25.3"/>
	</g>
	<g>
		<g>
			<path class="st0" d="M245.7,276.4h10.1v17.2h19.8v-17.2h10.1v46.2h-10.1v-19.8h-19.8v19.8h-10.1V276.4z"/>
			<path class="st0" d="M306.1,303.1l-17.5-26.7h12.6l9.7,17.2l10.4-17.2h12l-17.2,26.7v19.8h-10.1V303.1z"/>
			<path class="st0" d="M336.3,276.4h17.2c2.3,0,4.5,0.3,6.9,0.6c2.3,0.3,3.9,1.2,5.5,2.3c1.6,0.9,3,2.7,3.9,4.2
				c0.9,1.9,1.2,4.2,1.2,6.9c0,2.7-0.3,4.8-1.2,6.9c-0.9,1.9-1.9,3.3-3.6,4.2c-1.6,0.9-3.3,1.9-5.5,2.3c-1.9,0.3-4.2,0.6-6.9,0.6
				h-7.5v17.8h-10.1v-45.9H336.3z M346.3,295.9h6.9c0.9,0,1.9,0,2.7-0.3c0.9-0.3,1.6-0.3,2.3-0.9c0.6-0.3,1.2-0.9,1.6-1.6
				s0.6-1.6,0.6-2.7c0-1.2-0.3-2.3-0.9-3s-1.2-1.2-1.9-1.6c-0.9-0.3-1.9-0.6-3-0.6s-1.9,0-3,0h-5.1L346.3,295.9z"/>
			<path class="st0" d="M377.2,276.4h31.5v9.4h-21.1v8.7h20.1v9.4h-20.1v9.4h22.5v9.4h-32.4L377.2,276.4z"/>
			<path class="st0" d="M417.1,276.4h17.9c2.3,0,4.5,0.3,6.9,0.6c2.3,0.3,3.9,1.2,5.5,2.3c1.6,0.9,3,2.7,3.9,4.2
				c0.9,1.9,1.2,3.9,1.2,6.9c0,3.3-0.9,6.2-2.7,8.4c-1.6,2.3-4.2,3.9-7.5,4.2l11.7,19.5h-12.2l-9.7-18.6h-4.8v18.6h-10.1v-46.2
				H417.1z M427.6,295.6h6.2c0.9,0,1.9,0,3,0s1.9-0.3,3-0.6c0.9-0.3,1.6-0.9,1.9-1.6c0.6-0.6,0.6-1.6,0.6-3s-0.3-2.3-0.6-3
				s-0.9-1.2-1.9-1.6c-0.6-0.3-1.6-0.6-2.7-0.6c-1.1,0-1.9-0.3-3-0.3h-6.9L427.6,295.6z"/>
			<path class="st0" d="M459.4,276.4h10.1v36.7h18.9v9.4h-29.3L459.4,276.4z"/>
			<path class="st0" d="M493.9,276.4h31.5v9.4h-21.1v8.7h20.1v9.4h-20.1v9.4h22.5v9.4h-32.4L493.9,276.4z"/>
			<path class="st0" d="M533.8,276.4h15.3c3.6,0,7.2,0.3,10.4,1.2s6.2,2.3,8.7,3.9c2.7,1.9,4.5,4.2,5.8,7.2c1.6,3,2.3,6.6,2.3,10.8
				c0,3.9-0.6,7.2-2.3,9.7c-1.2,3-3.3,5.1-5.8,7.2c-2.3,1.9-5.1,3.3-8.4,4.5c-3.3,0.9-6.6,1.6-9.7,1.6h-16.5L533.8,276.4z
				 M544.3,313.5h5.1c2.3,0,4.5-0.3,6.6-0.6c1.9-0.3,3.9-1.2,5.1-2.3c1.6-0.9,2.7-2.7,3.6-4.2c0.9-1.9,1.2-3.9,1.2-6.6
				c0-2.3-0.3-4.2-1.2-5.8c-0.9-1.6-1.9-3-3.6-4.2c-1.2-0.9-3.3-1.9-5.1-2.7c-1.9-0.8-3.9-0.9-6.2-0.6h-6.2L544.3,313.5z"/>
			<path class="st0" d="M624.9,319c-3,1.6-6.2,2.7-9.4,3.3c-3.3,0.6-6.6,0.9-10.1,0.9s-6.9-0.6-10.1-1.6c-3-0.9-5.8-2.7-7.8-4.8
				c-2.3-1.9-3.9-4.5-5.1-7.8c-1.2-3-1.9-6.6-1.9-10.1s0.6-7.2,1.9-10.1s3-5.5,5.1-7.8c2.3-2.3,4.8-3.9,7.8-4.8
				c3-0.9,6.6-1.6,10.1-1.6s7.2,0.3,10.1,1.2c3.3,0.9,5.8,2.3,8.1,4.5l-7.2,7.8c-1.2-1.2-3-2.7-4.5-3.3s-3.9-0.9-6.6-0.9
				c-2.3,0-4.2,0.3-5.8,0.9s-3.3,1.6-4.5,3.3c-1.2,1.2-2.3,3-3,4.8c-0.6,1.9-0.9,3.9-0.9,5.8c0,2.3,0.3,4.2,0.9,5.8
				c0.6,1.9,1.6,3.3,3,4.5s3,2.3,4.5,3.3c1.6,0.6,3.9,0.9,5.8,0.9c2.3,0,4.2-0.3,5.8-0.6c1.6-0.6,3-0.9,3.9-1.6v-7.5h-8.4v-9.4h18.2
				L624.9,319z"/>
			<path class="st0" d="M633.6,276.4h31.5v9.4h-21.1v8.7h20.1v9.4h-20.1v9.4h22.5v9.4h-32.4L633.6,276.4z"/>
			<path class="st0" d="M673.6,276.4h17.9c2.3,0,4.5,0.3,6.9,0.6c2.3,0.3,3.9,1.2,5.5,2.3c1.6,0.9,3,2.7,3.9,4.2
				c0.9,1.9,1.2,3.9,1.2,6.9c0,3.3-0.9,6.2-2.7,8.4c-1.6,2.3-4.2,3.6-7.5,4.2l11.7,19.5h-12.3l-9.7-18.6h-4.8v18.6h-10.1V276.4z
				 M684,295.6h6.2c0.9,0,1.9,0,3,0c0.9,0,1.9-0.3,3-0.6c0.9-0.3,1.6-0.9,1.9-1.6c0.6-0.6,0.9-1.6,0.9-3s-0.3-2.3-0.6-3
				s-0.9-1.2-1.9-1.6c-0.6-0.3-1.6-0.6-2.7-0.6c-0.9,0-1.9-0.3-3-0.3H684V295.6z"/>
		</g>
	</g>
</g>
</svg>
